<svg width="24" height="24" viewBox="0 0 24 24" fill="none" xmlns="http://www.w3.org/2000/svg">
  <g clip-path="url(#clip0)">
    <path d="M12.451 17.1714L10 19.7664H8V21.7153H6V23.6642H0V18.792L6.865 12.0205C7.945 14.3826 9.96 16.2457 12.451 17.1714ZM24 8.07298C24 12.3781 20.418 15.8686 16 15.8686C11.582 15.8686 8 12.3781 8 8.07298C8 3.76785 11.582 0.277359 16 0.277359C20.418 0.277359 24 3.76785 24 8.07298ZM21 5.14962C21 4.07383 20.104 3.20072 19 3.20072C17.896 3.20072 17 4.07383 17 5.14962C17 6.22542 17.896 7.09853 19 7.09853C20.104 7.09853 21 6.22542 21 5.14962Z" fill="#A7A7A7"/>
  </g>
  <defs>
    <clipPath id="clip0">
      <rect width="24" height="23.3869" fill="white" transform="translate(0 0.277359)"/>
    </clipPath>
  </defs>
</svg>
