<svg xmlns="http://www.w3.org/2000/svg" viewBox="0 0 90 90">
      <defs>
        <style>
          .cls-1 {
            fill: #eaa74e;
          }
          .cls-2 {
            fill: #ffeaa1;
          }
          .cls-3 {
            fill: #cc1939;
          }
          .cls-4 {
            fill: #f4deba;
          }
          .cls-5 {
            fill: #e0c76e;
          }
          .cls-6 {
            fill: #51b224;
          }
          .cls-7 {
            fill: #f04b3e;
          }
        </style>
      </defs>
      <title>sliced-pizza</title>
      <g id="sliced-pizza">
        <g id="sliced-pizza-2" data-name="sliced-pizza">
          <path
            class="cls-1"
            d="M42.5,78.33A33.33,33.33,0,1,1,72.25,30l6.06-2.85a40,40,0,1,0,1.11,33.25l-6.32-2.19A33.33,33.33,0,0,1,42.5,78.33Z"
          />
          <circle class="cls-2" cx="53.56" cy="69.91" r="1.21" />
          <circle class="cls-2" cx="15.61" cy="53.14" r="1.21" />
          <circle class="cls-2" cx="22.45" cy="23.91" r="1.21" />
          <circle class="cls-2" cx="49.41" cy="55.69" r="1.21" />
          <circle class="cls-2" cx="31.17" cy="69.1" r="1.21" />
          <path
            class="cls-2"
            d="M52.22,37.32a1.2,1.2,0,0,0-.42,2.33l1.54-.73a1.19,1.19,0,0,0,.08-.4A1.21,1.21,0,0,0,52.22,37.32Z"
          />
          <circle class="cls-2" cx="29.43" cy="49.52" r="1.21" />
          <circle class="cls-2" cx="37.47" cy="16.4" r="1.21" />
          <path
            class="cls-2"
            d="M62.59,57a7.77,7.77,0,0,1-7.21-4.89l-7.84-2.71a5,5,0,0,1-2,2,2.66,2.66,0,0,1-4-1.9,2.58,2.58,0,0,1,.58-1.83c-1.59.24-3.47.23-4-1.43-.73-2.31,2.07-2.54,3.57-1.84l.87-.41c-.13-1,0-1.83,1.56-1.94a3.44,3.44,0,0,1,1.79.37l4.77-2.25a2.27,2.27,0,1,1,3.82-1.8l4.91-2.31a2.63,2.63,0,0,1-.31-.9,2.58,2.58,0,0,1,.58-1.83c-1.59.24-3.47.23-4-1.43-.78-2.46,2.46-2.58,3.86-1.7a9,9,0,0,1,.79.57c-.29-1.29-.77-2.91,1.34-3.06,2.33-.17,4,2,4.18,3.9a6,6,0,0,1-.06,1.45l6.46-3a33.31,33.31,0,1,0,.84,28.21l-6.64-2.3A7.7,7.7,0,0,1,62.59,57ZM44.71,18.19A7.78,7.78,0,1,1,36.94,26,7.78,7.78,0,0,1,44.71,18.19Zm-7.24-4.07a2.28,2.28,0,1,1-2.28,2.28A2.28,2.28,0,0,1,37.47,14.12Zm-3.77,15a3.67,3.67,0,0,1,3.62,1.7,1.74,1.74,0,0,1-1.15,2.64A1.68,1.68,0,0,1,35,33.17c.19,1,.22,2.25-.85,2.63-1.58.56-1.73-1.55-1.19-2.48a5.86,5.86,0,0,1,.36-.53c-.83.22-1.88.56-2-.81A2.73,2.73,0,0,1,33.7,29.17Zm-2,20.35a2.28,2.28,0,1,1-2.28-2.28A2.28,2.28,0,0,1,31.71,49.52ZM22.45,21.63a2.28,2.28,0,1,1-2.28,2.28A2.28,2.28,0,0,1,22.45,21.63Zm-.13,7a7.78,7.78,0,1,1-7.78,7.78A7.78,7.78,0,0,1,22.32,28.61ZM15.61,55.42a2.28,2.28,0,1,1,2.28-2.28A2.28,2.28,0,0,1,15.61,55.42Zm10.51,3.27a2.58,2.58,0,0,1-1.85-.51c.3,1.58.36,3.46-1.28,4-2.43.87-2.67-2.36-1.85-3.8a8.85,8.85,0,0,1,.54-.82c-1.28.34-2.88.88-3.11-1.22-.26-2.32,1.83-4.09,3.74-4.33a5.62,5.62,0,0,1,5.57,2.58A2.66,2.66,0,0,1,26.12,58.69Zm5,12.69a2.28,2.28,0,1,1,2.28-2.28A2.28,2.28,0,0,1,31.17,71.38Zm2.82-17a5.72,5.72,0,0,1,.36-.53c-.83.22-1.88.56-2-.81a2.73,2.73,0,0,1,2.45-2.81,3.67,3.67,0,0,1,3.62,1.7,1.74,1.74,0,0,1-1.15,2.64A1.68,1.68,0,0,1,36,54.22c.19,1,.22,2.25-.85,2.63C33.6,57.41,33.45,55.3,34,54.37Zm7.86,18.17a7.78,7.78,0,1,1,7.78-7.78A7.78,7.78,0,0,1,41.85,72.54ZM49.41,58a2.28,2.28,0,1,1,2.28-2.28A2.28,2.28,0,0,1,49.41,58Zm4.16,14.21a2.28,2.28,0,1,1,2.28-2.28A2.28,2.28,0,0,1,53.56,72.18ZM67.41,62.07a1.68,1.68,0,0,1-1.21-.34c.19,1,.22,2.25-.85,2.63-1.58.56-1.73-1.55-1.19-2.48a5.51,5.51,0,0,1,.36-.53c-.83.22-1.88.56-2-.81a2.73,2.73,0,0,1,2.45-2.81,3.67,3.67,0,0,1,3.62,1.7A1.74,1.74,0,0,1,67.41,62.07Z"
          />
          <path
            class="cls-3"
            d="M22.32,44.16a7.78,7.78,0,1,0-7.78-7.78A7.78,7.78,0,0,0,22.32,44.16Zm4.51-8.81a1.43,1.43,0,1,1-1.43,1.43A1.43,1.43,0,0,1,26.83,35.35Zm-4.6-4.6a1.43,1.43,0,1,1-1.43,1.43A1.43,1.43,0,0,1,22.23,30.75Zm0,9.21a1.43,1.43,0,1,1-1.43,1.43A1.43,1.43,0,0,1,22.23,40Zm-6-3.17a1.43,1.43,0,1,1,1.43,1.43A1.43,1.43,0,0,1,16.19,36.78Z"
          />
          <circle class="cls-4" cx="26.83" cy="36.78" r="1.43" />
          <circle class="cls-4" cx="17.63" cy="36.78" r="1.43" />
          <circle class="cls-4" cx="22.23" cy="41.39" r="1.43" />
          <circle class="cls-4" cx="22.23" cy="32.18" r="1.43" />
          <path
            class="cls-3"
            d="M41.85,57a7.78,7.78,0,1,0,7.78,7.78A7.78,7.78,0,0,0,41.85,57ZM37.16,66.6a1.43,1.43,0,1,1,1.43-1.43A1.43,1.43,0,0,1,37.16,66.6Zm4.6,4.6a1.43,1.43,0,1,1,1.43-1.43A1.43,1.43,0,0,1,41.76,71.2Zm0-9.21a1.43,1.43,0,1,1,1.43-1.43A1.43,1.43,0,0,1,41.76,62Zm6,3.17a1.43,1.43,0,1,1-1.43-1.43A1.43,1.43,0,0,1,47.8,65.17Z"
          />
          <circle class="cls-4" cx="46.37" cy="65.17" r="1.43" />
          <circle class="cls-4" cx="37.16" cy="65.17" r="1.43" />
          <circle class="cls-4" cx="41.76" cy="69.77" r="1.43" />
          <circle class="cls-4" cx="41.76" cy="60.56" r="1.43" />
          <path
            class="cls-3"
            d="M62.5,55.65a1.43,1.43,0,0,1-1.43-1.43,1.34,1.34,0,0,1,0-.14l-5.72-2a7.7,7.7,0,0,0,11.06,3.83l-2.76-1A1.41,1.41,0,0,1,62.5,55.65Z"
          />
          <path
            class="cls-4"
            d="M62.5,55.65A1.41,1.41,0,0,0,63.69,55l-2.59-.9a1.34,1.34,0,0,0,0,.14A1.43,1.43,0,0,0,62.5,55.65Z"
          />
          <path
            class="cls-3"
            d="M36.94,26a7.78,7.78,0,1,0,7.78-7.78A7.78,7.78,0,0,0,36.94,26Zm12.29-1a1.43,1.43,0,1,1-1.43,1.43A1.43,1.43,0,0,1,49.23,24.94Zm-4.6-4.6a1.43,1.43,0,1,1-1.43,1.43A1.43,1.43,0,0,1,44.62,20.34Zm0,9.21A1.43,1.43,0,1,1,43.19,31,1.43,1.43,0,0,1,44.62,29.54Zm-3.17-3.17A1.43,1.43,0,1,1,40,24.94,1.43,1.43,0,0,1,41.45,26.37Z"
          />
          <circle class="cls-4" cx="49.23" cy="26.37" r="1.43" />
          <circle class="cls-4" cx="40.02" cy="26.37" r="1.43" />
          <circle class="cls-4" cx="44.62" cy="30.97" r="1.43" />
          <circle class="cls-4" cx="44.62" cy="21.77" r="1.43" />
          <path
            class="cls-5"
            d="M22.31,52.06c-1.91.24-4,2-3.74,4.33.23,2.1,1.83,1.56,3.11,1.22a8.85,8.85,0,0,0-.54.82c-.82,1.43-.58,4.67,1.85,3.8,1.64-.59,1.58-2.46,1.28-4a2.58,2.58,0,0,0,1.85.51,2.66,2.66,0,0,0,1.75-4.05A5.62,5.62,0,0,0,22.31,52.06Z"
          />
          <path
            class="cls-5"
            d="M65.86,31.61c-.16-1.91-1.85-4.07-4.18-3.9-2.11.15-1.63,1.77-1.34,3.06a9,9,0,0,0-.79-.57c-1.4-.88-4.64-.75-3.86,1.7.53,1.66,2.4,1.67,4,1.43a2.58,2.58,0,0,0-.58,1.83,2.63,2.63,0,0,0,.31.9l6.4-3A6,6,0,0,0,65.86,31.61Z"
          />
          <path
            class="cls-5"
            d="M44.11,42.07c-1.52.11-1.69,1-1.56,1.94l3.35-1.58A3.44,3.44,0,0,0,44.11,42.07Z"
          />
          <path
            class="cls-5"
            d="M41.68,44.42c-1.51-.7-4.3-.47-3.57,1.84.53,1.66,2.4,1.67,4,1.43a2.58,2.58,0,0,0-.58,1.83,2.66,2.66,0,0,0,4,1.9,5,5,0,0,0,2-2l-9.46-3.28Z"
          />
          <path
            class="cls-5"
            d="M33.27,32.79a5.86,5.86,0,0,0-.36.53c-.54.93-.39,3,1.19,2.48,1.07-.38,1-1.6.85-2.63a1.68,1.68,0,0,0,1.21.34,1.74,1.74,0,0,0,1.15-2.64,3.67,3.67,0,0,0-3.62-1.7A2.73,2.73,0,0,0,31.25,32C31.4,33.35,32.44,33,33.27,32.79Z"
          />
          <path
            class="cls-5"
            d="M35.18,56.85c1.07-.38,1-1.6.85-2.63a1.68,1.68,0,0,0,1.21.34,1.74,1.74,0,0,0,1.15-2.64,3.67,3.67,0,0,0-3.62-1.7A2.73,2.73,0,0,0,32.32,53c.14,1.37,1.19,1,2,.81a5.72,5.72,0,0,0-.36.53C33.45,55.3,33.6,57.41,35.18,56.85Z"
          />
          <path
            class="cls-5"
            d="M64.94,57.73a2.73,2.73,0,0,0-2.45,2.81c.15,1.37,1.19,1,2,.81a5.51,5.51,0,0,0-.36.53c-.54.93-.39,3,1.19,2.48,1.07-.38,1-1.6.85-2.63a1.68,1.68,0,0,0,1.21.34,1.74,1.74,0,0,0,1.15-2.64A3.67,3.67,0,0,0,64.94,57.73Z"
          />
          <path
            class="cls-6"
            d="M27.15,49.52a2.28,2.28,0,1,0,2.28-2.28A2.28,2.28,0,0,0,27.15,49.52Zm3.49,0a1.21,1.21,0,1,1-1.21-1.21A1.21,1.21,0,0,1,30.63,49.52Z"
          />
          <path
            class="cls-6"
            d="M51,38.53a1.21,1.21,0,1,1,2.41,0,1.19,1.19,0,0,1-.08.4l1.14-.54a2.27,2.27,0,1,0-3.82,1.8l1.14-.54A1.2,1.2,0,0,1,51,38.53Z"
          />
          <path
            class="cls-7"
            d="M37.47,18.68a2.28,2.28,0,1,0-2.28-2.28A2.28,2.28,0,0,0,37.47,18.68Zm0-3.49a1.21,1.21,0,1,1-1.21,1.21A1.21,1.21,0,0,1,37.47,15.19Z"
          />
          <path
            class="cls-6"
            d="M53.56,67.63a2.28,2.28,0,1,0,2.28,2.28A2.28,2.28,0,0,0,53.56,67.63Zm0,3.49a1.21,1.21,0,1,1,1.21-1.21A1.21,1.21,0,0,1,53.56,71.11Z"
          />
          <circle class="cls-2" cx="74.39" cy="38.53" r="1.21" />
          <path
            class="cls-1"
            d="M80.83,45a33.29,33.29,0,0,1-1.57,10.11l6.3,2.18a40,40,0,0,0-.9-27.08L78.6,33.07A33.19,33.19,0,0,1,80.83,45Z"
          />
          <path
            class="cls-2"
            d="M78.6,33.07l-25.5,12a4.13,4.13,0,0,1,.19.88s0,.1,0,.15L59.9,48.4a7.76,7.76,0,1,1,14.26,4.94l5.1,1.77a33.1,33.1,0,0,0-.67-22Zm-4.21,7.73a2.28,2.28,0,1,1,2.28-2.28A2.28,2.28,0,0,1,74.39,40.81Z"
          />
          <path
            class="cls-3"
            d="M62.9,48.18a1.43,1.43,0,0,1,1.43,1.43,1.37,1.37,0,0,1-.06.3l9.89,3.43A7.76,7.76,0,1,0,59.9,48.4l1.72.6A1.42,1.42,0,0,1,62.9,48.18Zm9.21,0a1.43,1.43,0,1,1-1.43,1.43A1.43,1.43,0,0,1,72.11,48.18Zm-4.6-4.6A1.43,1.43,0,1,1,66.07,45,1.43,1.43,0,0,1,67.5,43.58Z"
          />
          <circle class="cls-4" cx="72.11" cy="49.61" r="1.43" />
          <path
            class="cls-4"
            d="M62.9,48.18a1.42,1.42,0,0,0-1.28.82l2.65.92a1.37,1.37,0,0,0,.06-.3A1.43,1.43,0,0,0,62.9,48.18Z"
          />
          <circle class="cls-4" cx="67.5" cy="45.01" r="1.43" />
          <path
            class="cls-5"
            d="M53.29,46.12c0-.05,0-.1,0-.15a4.13,4.13,0,0,0-.19-.88l-1.19.56Z"
          />
          <path
            class="cls-7"
            d="M74.39,36.25a2.28,2.28,0,1,0,2.28,2.28A2.28,2.28,0,0,0,74.39,36.25Zm0,3.49a1.21,1.21,0,1,1,1.21-1.21A1.21,1.21,0,0,1,74.39,39.73Z"
          />
          <path
            class="cls-6"
            d="M22.45,26.19a2.28,2.28,0,1,0-2.28-2.28A2.28,2.28,0,0,0,22.45,26.19Zm0-3.49a1.21,1.21,0,1,1-1.21,1.21A1.21,1.21,0,0,1,22.45,22.7Z"
          />
          <path
            class="cls-7"
            d="M15.61,50.87a2.28,2.28,0,1,0,2.28,2.28A2.28,2.28,0,0,0,15.61,50.87Zm0,3.49a1.21,1.21,0,1,1,1.21-1.21A1.21,1.21,0,0,1,15.61,54.35Z"
          />
          <path
            class="cls-6"
            d="M31.17,66.82a2.28,2.28,0,1,0,2.28,2.28A2.28,2.28,0,0,0,31.17,66.82Zm0,3.49a1.21,1.21,0,1,1,1.21-1.21A1.21,1.21,0,0,1,31.17,70.31Z"
          />
          <path
            class="cls-6"
            d="M49.41,53.41a2.28,2.28,0,1,0,2.28,2.28A2.28,2.28,0,0,0,49.41,53.41Zm0,3.49a1.21,1.21,0,1,1,1.21-1.21A1.21,1.21,0,0,1,49.41,56.9Z"
          />
        </g>
      </g>
    </svg>