<svg width="26" height="24" viewBox="0 0 26 24" fill="none" xmlns="http://www.w3.org/2000/svg">
  <g clip-path="url(#clip0)">
    <path fill-rule="evenodd" clip-rule="evenodd" d="M14.3454 24H0.637329V2H3.70561C4.96463 2 5.93626 0.916 6.7739 0H14.956C15.7957 0.916 16.7683 2 18.0243 2H21.0926V11.15C20.5965 11.052 20.0831 11 19.5584 11L19.047 11.016V4H14.956L12.9105 6H8.92477L6.7739 4H2.68285V22H12.7734C13.1795 22.751 13.7133 23.427 14.3454 24ZM19.5584 13C22.6625 13 25.1836 15.464 25.1836 18.5C25.1836 21.536 22.6625 24 19.5584 24C16.4533 24 13.9332 21.536 13.9332 18.5C13.9332 15.464 16.4533 13 19.5584 13ZM19.5584 15C21.5334 15 23.1381 16.568 23.1381 18.5C23.1381 20.432 21.5334 22 19.5584 22C17.5824 22 15.9788 20.432 15.9788 18.5C15.9788 16.568 17.5824 15 19.5584 15ZM22.1153 19H19.047V16H20.0698V18H22.1153V19ZM6.61946 14.948L5.54659 13.964L4.72838 14.787L6.6348 16.563L9.84218 13.371L9.00863 12.563L6.61946 14.948ZM12.9105 16H10.8649V15H12.9105V16ZM14.956 14H10.8649V13H14.956V14ZM6.61946 9.975L5.54659 8.992L4.72838 9.815L6.6348 11.591L9.84218 8.399L9.00863 7.591L6.61946 9.975ZM14.956 11H10.8649V10H14.956V11ZM14.956 9H10.8649V8H14.956V9ZM9.84218 3C9.84218 3.552 10.3014 4 10.8649 4C11.4305 4 11.8877 3.552 11.8877 3C11.8877 2.448 11.4305 2 10.8649 2C10.3014 2 9.84218 2.448 9.84218 3Z" fill="#CC1939"/>
  </g>
  <defs>
    <clipPath id="clip0">
      <rect width="24.5463" height="24" fill="white" transform="translate(0.637329)"/>
    </clipPath>
  </defs>
</svg>
